<?xml version="1.0" standalone="no"?>
<!DOCTYPE svg PUBLIC "-//W3C//DTD SVG 20010904//EN"
 "http://www.w3.org/TR/2001/REC-SVG-20010904/DTD/svg10.dtd">
<svg version="1.0" xmlns="http://www.w3.org/2000/svg"
 width="1100.000000pt" height="1100.000000pt" viewBox="0 0 1100.000000 1100.000000"
 preserveAspectRatio="xMidYMid meet">
<metadata>
Created by potrace 1.11, written by Peter Selinger 2001-2013
</metadata>
<g transform="translate(0.000000,1100.000000) scale(0.100000,-0.100000)"
fill="#000000" stroke="none">
<path d="M5238 7768 l-3 -443 -887 -3 -888 -2 0 -440 0 -440 -445 0 -445 0 0
-455 0 -455 -379 0 c-353 0 -380 -1 -385 -17 -24 -86 -31 -575 -9 -661 6 -25
5 -25 -51 -18 -197 25 -400 114 -526 233 l-46 42 4 -35 c6 -52 -23 -117 -73
-163 -75 -69 -202 -122 -410 -172 l-99 -24 608 -5 609 -5 23 -110 c62 -299
176 -579 330 -810 419 -630 1067 -1025 1889 -1154 206 -32 341 -41 625 -41
886 0 1659 169 2356 514 680 337 1208 800 1631 1434 l116 172 821 1 821 0
-140 38 c-158 43 -199 58 -274 96 -110 55 -179 148 -169 229 l4 35 -46 -42
c-131 -123 -301 -197 -530 -232 -91 -14 -401 -21 -412 -9 -3 3 34 82 82 177
48 95 109 225 136 289 l49 118 122 0 c468 0 855 167 1073 461 77 103 164 273
147 286 -76 60 -257 141 -406 181 -89 24 -111 26 -316 26 -193 0 -232 -2 -314
-22 -107 -25 -105 -25 -115 49 -24 181 -159 433 -339 633 -71 79 -303 279
-317 274 -18 -7 -143 -166 -175 -223 -41 -74 -87 -203 -111 -315 -15 -68 -19
-126 -19 -290 0 -188 3 -214 27 -310 32 -128 82 -249 137 -331 23 -34 41 -62
41 -64 0 -8 -200 -98 -275 -125 -256 -89 -401 -110 -792 -110 l-303 0 0 455 0
455 -445 0 -445 0 0 885 0 885 -530 0 -530 0 -2 -442z m920 -85 l-3 -388 -387
-3 -388 -2 0 390 0 390 390 0 390 0 -2 -387z m-1778 -888 l0 -385 -390 0 -390
0 0 385 0 385 390 0 390 0 0 -385z m888 -2 l-3 -388 -387 -3 -388 -2 0 390 0
390 390 0 390 0 -2 -387z m882 2 l0 -385 -385 0 -385 0 0 385 0 385 385 0 385
0 0 -385z m2658 198 c177 -176 286 -342 347 -533 22 -69 28 -110 32 -216 l5
-130 92 34 c240 91 541 107 782 42 81 -22 224 -84 224 -98 0 -25 -111 -175
-176 -239 -152 -148 -346 -238 -614 -285 -45 -7 -154 -13 -272 -13 l-197 1
-57 -141 c-54 -130 -238 -508 -268 -547 -11 -16 -18 -16 -72 -3 -100 23 -230
75 -295 116 l-61 40 -43 -40 c-193 -178 -746 -240 -1300 -146 -284 48 -502
134 -558 218 l-18 27 -66 -57 c-118 -100 -312 -177 -538 -214 -44 -7 -154 -13
-245 -13 -91 0 -201 6 -245 13 -225 37 -420 114 -537 214 l-66 56 -25 -32
c-75 -98 -338 -187 -692 -233 -183 -24 -559 -25 -713 -1 -212 33 -362 89 -447
168 l-44 41 -33 -25 c-124 -93 -374 -161 -634 -174 l-131 -6 -8 69 c-12 109
-8 475 5 488 8 8 817 13 2988 17 l2977 5 97 22 c313 68 531 154 706 278 57 42
76 64 52 64 -21 0 -123 139 -166 225 -24 50 -56 135 -71 190 -25 93 -27 114
-27 305 0 191 2 212 27 305 41 153 125 315 162 315 8 0 64 -48 123 -107z
m-5318 -1088 l0 -385 -390 0 -390 0 0 385 0 385 390 0 390 0 0 -385z m888 -2
l-3 -388 -387 -3 -388 -2 0 390 0 390 390 0 390 0 -2 -387z m892 2 l0 -385
-390 0 -390 0 0 385 0 385 390 0 390 0 0 -385z m888 -2 l-3 -388 -387 -3 -388
-2 0 390 0 390 390 0 390 0 -2 -387z m882 2 l0 -385 -385 0 -385 0 0 385 0
385 385 0 385 0 0 -385z m1564 -1207 c-30 -50 -140 -210 -203 -292 -698 -925
-1748 -1489 -3051 -1640 -464 -54 -1003 -47 -1380 19 -450 78 -875 270 -1220
549 -107 87 -280 244 -280 254 0 4 186 7 413 7 512 0 712 21 1022 106 128 35
147 49 143 98 -5 58 -35 66 -133 35 -333 -103 -907 -146 -1459 -107 l-88 6
-70 106 c-86 129 -195 350 -243 491 -36 106 -95 329 -95 362 0 17 147 18 3326
18 2657 0 3324 -3 3318 -12z"/>
<path d="M5450 7685 l0 -315 25 0 25 0 0 315 0 315 -25 0 -25 0 0 -315z"/>
<path d="M5570 7685 l0 -315 25 0 25 0 0 315 0 315 -25 0 -25 0 0 -315z"/>
<path d="M5680 7685 l0 -315 30 0 30 0 0 315 0 315 -30 0 -30 0 0 -315z"/>
<path d="M5800 7685 l0 -315 25 0 25 0 0 315 0 315 -25 0 -25 0 0 -315z"/>
<path d="M5920 7685 l0 -315 25 0 25 0 0 315 0 315 -25 0 -25 0 0 -315z"/>
<path d="M6030 7685 l0 -315 25 0 25 0 0 315 0 315 -25 0 -25 0 0 -315z"/>
<path d="M3670 6790 l0 -320 25 0 25 0 0 320 0 320 -25 0 -25 0 0 -320z"/>
<path d="M3782 6793 l3 -318 28 -3 27 -3 0 320 0 321 -30 0 -30 0 2 -317z"/>
<path d="M3900 6790 l0 -320 30 0 30 0 0 320 0 320 -30 0 -30 0 0 -320z"/>
<path d="M4020 6789 l0 -320 28 3 27 3 3 318 2 317 -30 0 -30 0 0 -321z"/>
<path d="M4132 6793 l3 -318 28 -3 27 -3 0 320 0 321 -30 0 -30 0 2 -317z"/>
<path d="M4250 6789 l0 -320 28 3 27 3 3 318 2 317 -30 0 -30 0 0 -321z"/>
<path d="M4560 6795 l0 -315 25 0 25 0 0 315 0 315 -25 0 -25 0 0 -315z"/>
<path d="M4680 6795 l0 -315 25 0 25 0 0 315 0 315 -25 0 -25 0 0 -315z"/>
<path d="M4790 6795 l0 -315 30 0 30 0 0 315 0 315 -30 0 -30 0 0 -315z"/>
<path d="M4910 6795 l0 -315 25 0 25 0 0 315 0 315 -25 0 -25 0 0 -315z"/>
<path d="M5030 6795 l0 -315 25 0 25 0 0 315 0 315 -25 0 -25 0 0 -315z"/>
<path d="M5140 6795 l0 -315 25 0 25 0 0 315 0 315 -25 0 -25 0 0 -315z"/>
<path d="M5450 6790 l0 -320 25 0 25 0 0 320 0 320 -25 0 -25 0 0 -320z"/>
<path d="M5562 6793 l3 -318 28 -3 27 -3 0 320 0 321 -30 0 -30 0 2 -317z"/>
<path d="M5680 6790 l0 -320 30 0 30 0 0 320 0 320 -30 0 -30 0 0 -320z"/>
<path d="M5800 6790 l0 -320 25 0 25 0 0 320 0 320 -25 0 -25 0 0 -320z"/>
<path d="M5912 6793 l3 -318 28 -3 27 -3 0 320 0 321 -30 0 -30 0 2 -317z"/>
<path d="M6030 6789 l0 -320 28 3 27 3 3 318 2 317 -30 0 -30 0 0 -321z"/>
<path d="M2780 5905 l0 -315 30 0 30 0 0 315 0 315 -30 0 -30 0 0 -315z"/>
<path d="M2890 5905 l0 -315 30 0 30 0 0 315 0 315 -30 0 -30 0 0 -315z"/>
<path d="M3010 5905 l0 -315 30 0 30 0 0 315 0 315 -30 0 -30 0 0 -315z"/>
<path d="M3130 5905 l0 -315 30 0 30 0 0 315 0 315 -30 0 -30 0 0 -315z"/>
<path d="M3240 5905 l0 -315 30 0 30 0 0 315 0 315 -30 0 -30 0 0 -315z"/>
<path d="M3360 5905 l0 -315 30 0 30 0 0 315 0 315 -30 0 -30 0 0 -315z"/>
<path d="M3670 5905 l0 -315 25 0 25 0 0 315 0 315 -25 0 -25 0 0 -315z"/>
<path d="M3790 5905 l0 -315 25 0 25 0 0 315 0 315 -25 0 -25 0 0 -315z"/>
<path d="M3900 5905 l0 -315 30 0 30 0 0 315 0 315 -30 0 -30 0 0 -315z"/>
<path d="M4020 5905 l0 -315 25 0 25 0 0 315 0 315 -25 0 -25 0 0 -315z"/>
<path d="M4140 5905 l0 -315 25 0 25 0 0 315 0 315 -25 0 -25 0 0 -315z"/>
<path d="M4250 5905 l0 -315 25 0 25 0 0 315 0 315 -25 0 -25 0 0 -315z"/>
<path d="M4560 5905 l0 -315 25 0 25 0 0 315 0 315 -25 0 -25 0 0 -315z"/>
<path d="M4670 5905 l0 -315 30 0 30 0 0 315 0 315 -30 0 -30 0 0 -315z"/>
<path d="M4790 5905 l0 -315 30 0 30 0 0 315 0 315 -30 0 -30 0 0 -315z"/>
<path d="M4910 5905 l0 -315 25 0 25 0 0 315 0 315 -25 0 -25 0 0 -315z"/>
<path d="M5020 5905 l0 -315 30 0 30 0 0 315 0 315 -30 0 -30 0 0 -315z"/>
<path d="M5140 5905 l0 -315 30 0 30 0 0 315 0 315 -30 0 -30 0 0 -315z"/>
<path d="M5450 5905 l0 -315 25 0 25 0 0 315 0 315 -25 0 -25 0 0 -315z"/>
<path d="M5570 5905 l0 -315 25 0 25 0 0 315 0 315 -25 0 -25 0 0 -315z"/>
<path d="M5680 5905 l0 -315 30 0 30 0 0 315 0 315 -30 0 -30 0 0 -315z"/>
<path d="M5800 5905 l0 -315 25 0 25 0 0 315 0 315 -25 0 -25 0 0 -315z"/>
<path d="M5920 5905 l0 -315 25 0 25 0 0 315 0 315 -25 0 -25 0 0 -315z"/>
<path d="M6030 5905 l0 -315 25 0 25 0 0 315 0 315 -25 0 -25 0 0 -315z"/>
<path d="M6340 5905 l0 -315 25 0 25 0 0 315 0 315 -25 0 -25 0 0 -315z"/>
<path d="M6450 5905 l0 -315 30 0 30 0 0 315 0 315 -30 0 -30 0 0 -315z"/>
<path d="M6570 5905 l0 -315 30 0 30 0 0 315 0 315 -30 0 -30 0 0 -315z"/>
<path d="M6690 5905 l0 -315 25 0 25 0 0 315 0 315 -25 0 -25 0 0 -315z"/>
<path d="M6800 5905 l0 -315 30 0 30 0 0 315 0 315 -30 0 -30 0 0 -315z"/>
<path d="M6920 5905 l0 -315 30 0 30 0 0 315 0 315 -30 0 -30 0 0 -315z"/>
<path d="M4277 4196 c-69 -25 -97 -66 -97 -143 0 -86 58 -143 145 -143 90 0
145 57 145 149 0 52 -1 53 -18 38 -40 -37 -102 -8 -102 48 0 19 5 37 12 41 8
5 6 10 -8 15 -26 11 -34 10 -77 -5z"/>
</g>
</svg>
